<mxfile host="drawio-plugin" modified="2022-06-15T22:21:46.811Z" agent="5.0 (X11; Linux x86_64) AppleWebKit/537.36 (KHTML, like Gecko) Chrome/84.0.4147.105 Safari/537.36" etag="rRCvEKGsxu3l9M_nJwgD" version="14.7.4" type="embed"><diagram id="CBdi5MmIp6J7W0nvef9q" name="Page-1"><mxGraphModel dx="1112" dy="725" grid="1" gridSize="10" guides="1" tooltips="1" connect="1" arrows="1" fold="1" page="1" pageScale="1" pageWidth="850" pageHeight="1100" math="0" shadow="0"><root><mxCell id="0"/><mxCell id="1" parent="0"/><mxCell id="4" value="Node" style="shape=umlLifeline;perimeter=lifelinePerimeter;container=0;collapsible=0;recursiveResize=0;rounded=0;shadow=0;strokeWidth=1;fontSize=16;" parent="1" vertex="1"><mxGeometry x="165" y="10" width="100" height="97.92" as="geometry"/></mxCell><mxCell id="5" value="Failover Coordinator" style="shape=umlLifeline;perimeter=lifelinePerimeter;container=0;collapsible=0;recursiveResize=0;rounded=0;shadow=0;strokeWidth=1;fontSize=16;whiteSpace=wrap;" parent="1" vertex="1"><mxGeometry x="425" y="10" width="120" height="200" as="geometry"/></mxCell><mxCell id="6" value="" style="points=[];perimeter=orthogonalPerimeter;rounded=0;shadow=0;strokeWidth=1;fontSize=16;" parent="1" vertex="1"><mxGeometry x="457.5" y="170" width="55" height="370" as="geometry"/></mxCell><mxCell id="7" value="" style="points=[];perimeter=orthogonalPerimeter;rounded=0;shadow=0;strokeWidth=1;whiteSpace=wrap;align=left;fontSize=16;" parent="1" vertex="1"><mxGeometry x="190" y="80" width="50" height="460" as="geometry"/></mxCell><mxCell id="8" value="Moved" style="verticalAlign=bottom;endArrow=block;endSize=8;shadow=0;strokeWidth=1;fontSize=16;endFill=1;" parent="1" edge="1"><mxGeometry y="10" as="geometry"><mxPoint x="244" y="220" as="targetPoint"/><mxPoint x="455" y="220" as="sourcePoint"/></mxGeometry></mxCell><mxCell id="9" value="Heartbeat" style="verticalAlign=bottom;endArrow=block;shadow=0;strokeWidth=1;fontSize=16;endSize=8;startSize=8;jumpSize=8;" parent="1" edge="1"><mxGeometry y="10" as="geometry"><mxPoint x="243" y="190" as="sourcePoint"/><Array as="points"/><mxPoint as="offset"/><mxPoint x="455" y="190" as="targetPoint"/></mxGeometry></mxCell><mxCell id="16" value="CLUSTER JOIN" style="endArrow=block;html=1;fontSize=16;endFill=1;endSize=8;startSize=8;entryX=-0.08;entryY=0.057;entryDx=0;entryDy=0;entryPerimeter=0;" parent="1" target="7" edge="1"><mxGeometry x="-0.1987" y="15" width="50" height="50" relative="1" as="geometry"><mxPoint x="20" y="108" as="sourcePoint"/><mxPoint x="180" y="108" as="targetPoint"/><mxPoint as="offset"/></mxGeometry></mxCell><mxCell id="17" value="JoinNode" style="verticalAlign=bottom;endArrow=block;shadow=0;strokeWidth=1;fontSize=16;exitX=1.033;exitY=0.096;exitDx=0;exitDy=0;exitPerimeter=0;endSize=8;startSize=8;jumpSize=8;" parent="1" source="7" edge="1"><mxGeometry as="geometry"><mxPoint x="270" y="80" as="sourcePoint"/><Array as="points"/><mxPoint x="-105" y="-6" as="offset"/><mxPoint x="760" y="124" as="targetPoint"/></mxGeometry></mxCell><mxCell id="18" value="" style="points=[];perimeter=orthogonalPerimeter;rounded=0;shadow=0;strokeWidth=1;fontSize=16;" parent="1" vertex="1"><mxGeometry x="762.5" y="70" width="55" height="470" as="geometry"/></mxCell><mxCell id="19" value="Topology Director" style="shape=umlLifeline;perimeter=lifelinePerimeter;container=0;collapsible=0;recursiveResize=0;rounded=0;shadow=0;strokeWidth=1;fontSize=16;whiteSpace=wrap;" parent="1" vertex="1"><mxGeometry x="730" y="10" width="120" height="60" as="geometry"/></mxCell><mxCell id="20" value="JoinNodeResponse" style="verticalAlign=bottom;endArrow=none;shadow=0;strokeWidth=1;fontSize=16;exitX=1.033;exitY=0.307;exitDx=0;exitDy=0;exitPerimeter=0;startArrow=block;startFill=1;endFill=0;endSize=8;startSize=8;" parent="1" edge="1"><mxGeometry as="geometry"><mxPoint x="240.00000000000003" y="155.47999999999996" as="sourcePoint"/><Array as="points"/><mxPoint x="-106" as="offset"/><mxPoint x="760" y="153" as="targetPoint"/></mxGeometry></mxCell><mxCell id="21" value="FailoverStatus" style="verticalAlign=bottom;endArrow=block;shadow=0;strokeWidth=1;fontSize=16;jumpSize=8;endSize=8;startSize=8;entryX=-0.027;entryY=0.432;entryDx=0;entryDy=0;entryPerimeter=0;" parent="1" target="18" edge="1"><mxGeometry x="334.96000000000004" y="86.04999999999995" as="geometry"><mxPoint x="516" y="270" as="sourcePoint"/><Array as="points"/><mxPoint as="offset"/><mxPoint x="712" y="240" as="targetPoint"/></mxGeometry></mxCell><mxCell id="22" value="TopologyState" style="verticalAlign=bottom;endArrow=block;endSize=8;shadow=0;strokeWidth=1;fontSize=16;endFill=1;jumpSize=8;exitX=-0.045;exitY=0.504;exitDx=0;exitDy=0;exitPerimeter=0;" parent="1" source="18" edge="1"><mxGeometry x="165" y="160" as="geometry"><mxPoint x="513" y="307" as="targetPoint"/><mxPoint x="710" y="270" as="sourcePoint"/></mxGeometry></mxCell><mxCell id="23" value="NACK" style="verticalAlign=bottom;endArrow=block;endSize=8;shadow=0;strokeWidth=1;fontSize=16;endFill=1;" parent="1" edge="1"><mxGeometry x="96" y="149" as="geometry"><mxPoint x="242" y="367" as="targetPoint"/><mxPoint x="457" y="367" as="sourcePoint"/></mxGeometry></mxCell><mxCell id="24" value="Heartbeat" style="verticalAlign=bottom;endArrow=block;shadow=0;strokeWidth=1;fontSize=16;endSize=8;startSize=8;jumpSize=8;" parent="1" edge="1"><mxGeometry x="94" y="169" as="geometry"><mxPoint x="240" y="342" as="sourcePoint"/><Array as="points"/><mxPoint as="offset"/><mxPoint x="458" y="342" as="targetPoint"/></mxGeometry></mxCell><mxCell id="26" value="ACK" style="verticalAlign=bottom;endArrow=block;endSize=8;shadow=0;strokeWidth=1;fontSize=16;endFill=1;" parent="1" edge="1"><mxGeometry x="96" y="217" as="geometry"><mxPoint x="242" y="435" as="targetPoint"/><mxPoint x="457" y="435" as="sourcePoint"/></mxGeometry></mxCell><mxCell id="27" value="Heartbeat" style="verticalAlign=bottom;endArrow=block;shadow=0;strokeWidth=1;fontSize=16;endSize=8;startSize=8;jumpSize=8;" parent="1" edge="1"><mxGeometry x="94" y="237" as="geometry"><mxPoint x="240" y="410" as="sourcePoint"/><Array as="points"/><mxPoint as="offset"/><mxPoint x="458" y="410" as="targetPoint"/></mxGeometry></mxCell><mxCell id="28" value="FailoverStatus" style="verticalAlign=bottom;endArrow=block;shadow=0;strokeWidth=1;fontSize=16;jumpSize=8;endSize=8;startSize=8;" parent="1" edge="1"><mxGeometry x="333.48" y="316.04999999999995" as="geometry"><mxPoint x="514.52" y="470" as="sourcePoint"/><Array as="points"/><mxPoint as="offset"/><mxPoint x="760" y="470" as="targetPoint"/></mxGeometry></mxCell><mxCell id="29" value="TopologyState" style="verticalAlign=bottom;endArrow=block;endSize=8;shadow=0;strokeWidth=1;fontSize=16;endFill=1;jumpSize=8;entryX=1.027;entryY=0.27;entryDx=0;entryDy=0;entryPerimeter=0;" parent="1" edge="1"><mxGeometry x="163.52" y="390" as="geometry"><mxPoint x="512.5049999999999" y="499.9" as="targetPoint"/><mxPoint x="760" y="500" as="sourcePoint"/></mxGeometry></mxCell><mxCell id="32" value="OK" style="verticalAlign=bottom;endArrow=block;endSize=8;shadow=0;strokeWidth=1;fontSize=16;endFill=1;exitX=-0.06;exitY=0.207;exitDx=0;exitDy=0;exitPerimeter=0;" parent="1" source="7" edge="1"><mxGeometry x="-281" y="-68" as="geometry"><mxPoint x="20" y="175" as="targetPoint"/><mxPoint x="80" y="150" as="sourcePoint"/></mxGeometry></mxCell><mxCell id="36" value="Response includes:&lt;br&gt;- Node details for all TD nodes&lt;br&gt;- Node details for all FC nodes in the FC being joined&lt;br&gt;- Node details for the joining node" style="text;html=1;strokeColor=none;fillColor=none;align=left;verticalAlign=top;whiteSpace=wrap;rounded=0;" parent="1" vertex="1"><mxGeometry x="517.5" y="150" width="245" height="70" as="geometry"/></mxCell></root></mxGraphModel></diagram></mxfile>